<?xml version="1.0" encoding="utf-8"?>
<!-- Generator: Adobe Illustrator 23.0.0, SVG Export Plug-In . SVG Version: 6.00 Build 0)  -->
<svg version="1.1" id="Layer_1" xmlns="http://www.w3.org/2000/svg" xmlns:xlink="http://www.w3.org/1999/xlink" x="0px" y="0px"
	 viewBox="0 0 512 512" style="enable-background:new 0 0 512 512;" xml:space="preserve">
<style type="text/css">
	.st0{fill:#fff;}
</style>
<g>
	<g>
		<path class="st0" d="M243.7,12.3l-38.6,54.8c-7,9.9,0.1,23.6,12.3,23.6H241v263c0,8.3,6.7,15,15,15c8.3,0,15-6.7,15-15v-263h23.6
			c12.2,0,19.2-13.8,12.3-23.6l-38.6-54.8C262.4,4,249.8,3.8,243.7,12.3z"/>
	</g>
</g>
<g>
	<g>
		<path class="st0" d="M349.8,81.4c-4.1,7.1-1.7,16.2,5.5,20.3c60.4,34.9,101,100.3,101,175c0,111.4-90.6,202-202,202
			s-202-90.6-202-202c0-74.7,40.6-140.1,101-175c7.1-4.1,9.5-13.2,5.5-20.3c-4.1-7.1-13.2-9.5-20.3-5.5
			C68.7,116.3,22.4,191.4,22.4,276.8c0,128.1,103.7,231.8,231.8,231.8S486,404.9,486,276.8c0-85.5-46.4-160.6-115.9-200.7
			C363,71.9,353.9,74.4,349.8,81.4z"/>
	</g>
</g>
</svg>
