<?xml version="1.0" encoding="utf-8"?>
<!-- Generator: Adobe Illustrator 23.0.3, SVG Export Plug-In . SVG Version: 6.00 Build 0)  -->
<svg version="1.1" id="Layer_1" xmlns="http://www.w3.org/2000/svg" xmlns:xlink="http://www.w3.org/1999/xlink" x="0px" y="0px"
	 viewBox="0 0 512 512" style="enable-background:new 0 0 512 512;" xml:space="preserve">
<style type="text/css">
	.st0{fill:#FFFFFF;}
</style>
<g>
	<path class="st0" d="M256.6,100.1c26.7,0,48.4-21.7,48.4-48.4S283.3,3.4,256.6,3.4c-26.7,0-48.4,21.7-48.4,48.4
		C208.3,78.4,229.9,100.1,256.6,100.1z"/>
	<path class="st0" d="M180.4,248.4h152.4c9.9,0,18-8,18-18V164c0-18.4-11.8-34.7-29.3-40.4l-0.1,0l-25.6-4.2
		c-2.2-0.7-4.5,0.5-5.3,2.6l-29,79.6c-1.7,4.6-8.2,4.6-9.8,0l-29-79.6c-0.6-1.7-2.3-2.8-4-2.8c-0.4,0-26.8,4.4-26.8,4.4
		c-17.6,5.9-29.4,22.2-29.4,40.7v66.2C162.4,240.4,170.4,248.4,180.4,248.4L180.4,248.4z"/>
	<path class="st0" d="M477.1,371.1c-0.1,0-0.2-0.1-0.3-0.1l-13.8-4.2c-4.2-1.3-8.7-0.3-11.9,2.6l-29.8,27l-29.8-27
		c-3.2-2.9-7.7-3.9-11.9-2.6l-13.8,4.2c-0.1,0-0.2,0.1-0.3,0.1c-20.9,7-34.9,26.4-34.9,48.5v76.7c0,6.8,5.5,12.4,12.4,12.4h156.9
		c6.8,0,12.4-5.5,12.4-12.4v-76.7C512,397.5,498,378.1,477.1,371.1L477.1,371.1z"/>
	<path class="st0" d="M421.2,358.2c28.4,0,51.6-23.1,51.6-51.6c0-28.4-23.1-51.6-51.6-51.6c-28.4,0-51.6,23.1-51.6,51.6
		S392.8,358.2,421.2,358.2L421.2,358.2z"/>
	<path class="st0" d="M146.7,371.1c-0.1,0-0.2-0.1-0.3-0.1l-13.8-4.2c-4.2-1.3-8.7-0.3-11.9,2.6l-29.8,27l-29.8-27
		c-3.2-2.9-7.7-3.9-11.9-2.6c0,0-14,4.3-14.1,4.3C14,378.1,0,397.5,0,419.6v76.7c0,6.8,5.5,12.4,12.4,12.4h156.9
		c6.8,0,12.4-5.5,12.4-12.4v-76.7C181.6,397.5,167.6,378.1,146.7,371.1z"/>
	<path class="st0" d="M39.2,306.7c0,28.4,23.1,51.6,51.6,51.6c28.4,0,51.6-23.1,51.6-51.6c0-28.4-23.1-51.6-51.6-51.6
		C62.4,255.1,39.2,278.2,39.2,306.7z"/>
	<path class="st0" d="M435.3,170.7c-4.2-1.3-9-0.4-12.5,2.7c-5.5,4.8-6,13.2-1.2,18.7l18.1,20.6c2.5,2.9,6.1,4.5,9.9,4.5
		s7.4-1.6,9.9-4.5l18.1-20.6c4.8-5.5,4.3-13.9-1.2-18.7c-4.1-3.6-9.8-4.2-14.4-2c-2.7-28.9-14-56-32.6-77.3
		c-4.8-5.5-13.2-6-18.7-1.2c-5.5,4.8-6,13.2-1.2,18.7C423.8,127.8,432.6,148.5,435.3,170.7L435.3,170.7z"/>
	<path class="st0" d="M53.7,212.7c2.5,2.9,6.1,4.5,9.9,4.5c3.8,0,7.4-1.6,9.9-4.5l18.1-20.6c4.8-5.5,4.3-13.9-1.2-18.7
		c-3.6-3.1-8.3-4-12.5-2.7c2.7-22.2,11.5-42.8,25.8-59.1c4.8-5.5,4.3-13.9-1.2-18.7c-5.5-4.8-13.9-4.3-18.7,1.2
		c-18.7,21.2-29.9,48.4-32.6,77.3c-4.6-2.2-10.3-1.6-14.4,2c-5.5,4.8-6,13.2-1.2,18.7C35.6,192.1,53.7,212.7,53.7,212.7z"/>
	<path class="st0" d="M266.6,120c-1.1-1.2-2.7-1.8-4.4-1.8h-12.3c-1.6,0-3.3,0.6-4.4,1.8c-1.7,1.9-2,4.6-0.8,6.7l6.6,9.9l-3.1,26
		l6.1,16.1c0.6,1.6,2.9,1.6,3.5,0l6.1-16.1l-3.1-26l6.6-9.9C268.5,124.6,268.3,121.9,266.6,120L266.6,120z"/>
</g>
</svg>
